<?xml version="1.0" encoding="utf-8"?>
<!-- Generator: Adobe Illustrator 16.0.0, SVG Export Plug-In . SVG Version: 6.00 Build 0)  -->
<!DOCTYPE svg PUBLIC "-//W3C//DTD SVG 1.1//EN" "http://www.w3.org/Graphics/SVG/1.1/DTD/svg11.dtd">
<svg version="1.1" id="Layer_1" xmlns="http://www.w3.org/2000/svg" xmlns:xlink="http://www.w3.org/1999/xlink" x="0px" y="0px"
	 width="34px" height="34px" viewBox="0 0 79.37 79.37" enable-background="new 0 0 79.37 79.37" xml:space="preserve">

<g id="_x2B__1_">
	<g>
		<polygon fill="#FFFFFF" points="57.85,6.95 63.85,6.95 63.85,20.95 77.9,20.95 77.9,26.827 63.85,26.827 63.85,40.95 57.85,40.95 
			57.85,26.827 43.85,26.827 43.85,20.95 57.85,20.95"/>
	</g>
</g>
<g>
	<g>
		<linearGradient id="SVGID_4_" gradientUnits="userSpaceOnUse" x1="23.8564" y1="75.9692" x2="23.8564" y2="6.9497">
			<stop  offset="0" style="stop-color:#F2F2F2"/>
			<stop  offset="0.2413" style="stop-color:#F6F6F6"/>
			<stop  offset="1" style="stop-color:#FFFFFF"/>
		</linearGradient>
		<path fill="url(#SVGID_4_)" d="M33.65,55.008l-3.979-3.096c-1.212-0.998-2.867-2.328-2.867-4.762c0-2.441,1.655-3.996,3.09-5.434
			c4.637-3.65,8.957-7.535,8.957-15.732c0-7.484-4.043-11.686-6.753-14.035c0.909,0,6.765,0,6.765,0l6.199-5H21.728
			C15.938,7.057,9.034,7.926,2.741,13.135c-0.295,0.254,0.25,0.516-0.026,0.781v27.871c3.026,2.516,6.274,3.586,11.284,3.586
			c1.106,0,2.316-0.113,3.533-0.223c-0.551,1.332-1.104,2.441-1.104,4.324c0,3.432,1.764,5.533,3.312,7.531
			c-4.22,0.285-10.704,0.412-17.007,3.119l-0.019,5.809c2.278-3.096,5.054-3.467,6.648-4.049c4.636-1.553,10.599-1.775,11.597-1.775
			c1.098,0,1.65,0,2.53,0.113c8.395,5.986,13.792,8.969,13.792,14.629c0,0.598,0.001,0.805-0.021,1.117l6.604-0.004
			c0.648-2.092,0.984-3.389,0.984-5.438C44.85,62.881,38.505,59.11,33.65,55.008z M19.563,40.95
			c-9.495,0-13.393-10.977-13.393-18.396c0-2.887,0.289-5.873,2.166-8.201c1.77-2.217,4.857-3.656,7.73-3.656
			c9.158,0,13.783,12.408,13.783,20.387c0,1.598-0.812,4.721-2.884,7.094C25.15,40.247,22.321,40.95,19.563,40.95z"/>
	</g>
</g>
</svg>
